<svg width="24" height="25" viewBox="0 0 24 25" fill="none" xmlns="http://www.w3.org/2000/svg">
<path id="Vector" d="M22.2857 3.92857H13.7143V2.21429C13.7143 1.75963 13.5337 1.32359 13.2122 1.0021C12.8907 0.680612 12.4547 0.5 12 0.5H1.71429C1.25963 0.5 0.823593 0.680612 0.502103 1.0021C0.180612 1.32359 0 1.75963 0 2.21429V19.3571C0 19.8118 0.180612 20.2478 0.502103 20.5693C0.823593 20.8908 1.25963 21.0714 1.71429 21.0714H10.2857V22.7857C10.2857 23.2404 10.4663 23.6764 10.7878 23.9979C11.1093 24.3194 11.5453 24.5 12 24.5H22.2857C22.7404 24.5 23.1764 24.3194 23.4979 23.9979C23.8194 23.6764 24 23.2404 24 22.7857V5.64286C24 5.1882 23.8194 4.75216 23.4979 4.43067C23.1764 4.10918 22.7404 3.92857 22.2857 3.92857ZM1.71429 11.6429H7.00286L4.79143 13.8629L6 15.0714L10.2857 10.7857L6 6.5L4.79143 7.70857L7.00286 9.92857H1.71429V2.21429H12V19.3571H1.71429V11.6429ZM12 22.7857V21.0714C12.4547 21.0714 12.8907 20.8908 13.2122 20.5693C13.5337 20.2478 13.7143 19.8118 13.7143 19.3571V5.64286H22.2857V13.3571H16.9971L19.2086 11.1371L18 9.92857L13.7143 14.2143L18 18.5L19.2086 17.2914L16.9971 15.0714H22.2857V22.7857H12Z" fill="#395E66"/>
</svg>
