<svg id="Capa_1" data-name="Capa 1" xmlns="http://www.w3.org/2000/svg" viewBox="0 0 100 100"><defs><style>.cls-1{fill:#fff;}</style></defs><path class="cls-1" d="M92.75,25.22a49,49,0,0,0-18-18A48.21,48.21,0,0,0,50,.63,48.21,48.21,0,0,0,25.22,7.25a49,49,0,0,0-18,18A48.21,48.21,0,0,0,.63,50,48.21,48.21,0,0,0,7.25,74.78a49,49,0,0,0,18,18A48.21,48.21,0,0,0,50,99.37a48.21,48.21,0,0,0,24.78-6.62,49,49,0,0,0,18-18A48.21,48.21,0,0,0,99.37,50,48.21,48.21,0,0,0,92.75,25.22ZM82.08,59.06l-6.56,6.56a4,4,0,0,1-5.78,0L50,45.89,30.26,65.62a4,4,0,0,1-5.78,0l-6.56-6.56a4,4,0,0,1,0-5.78L47.11,24.09a4,4,0,0,1,5.78,0L82.08,53.28a4,4,0,0,1,0,5.78Z"/></svg>