<?xml version="1.0" encoding="utf-8"?>
<!-- Generator: Adobe Illustrator 25.0.0, SVG Export Plug-In . SVG Version: 6.00 Build 0)  -->
<svg version="1.1" id="Layer_1" xmlns="http://www.w3.org/2000/svg" xmlns:xlink="http://www.w3.org/1999/xlink" x="0px" y="0px"
	 viewBox="0 0 235.4 276" style="enable-background:new 0 0 235.4 276;" xml:space="preserve">
<style type="text/css">
	.st0{fill:#FFFFFF;}
</style>
<path class="st0" d="M236.2,113.7c-23.2,0-45.9-7.2-64.8-20.7v94.3c0,47.4-38.4,85.7-85.8,85.7C38.4,273,0,234.6,0,187.2
	s38.4-85.7,85.8-85.7c3.9,0,7.9,0.3,11.8,0.8v47.4c-20.7-6.5-42.8,5-49.3,25.7s5,42.8,25.7,49.3c20.7,6.5,42.8-5,49.3-25.7
	c1.2-3.8,1.8-7.8,1.8-11.8V3h46.4c0,3.9,0.3,7.8,1,11.7l0,0c3.3,17.4,13.5,32.7,28.4,42.3c10.5,6.9,22.8,10.6,35.3,10.6V113.7z"/>
</svg>
