<svg width="110" height="44" viewBox="0 0 110 44" fill="none" xmlns="http://www.w3.org/2000/svg">
<path d="M104.556 7.69594C104.467 7.89703 101.967 13.0234 80.2797 6.45469C58.1667 -0.248088 45.1874 6.70294 45.1874 6.70294C45.1874 6.70294 32.9291 15.3917 18.748 17.1295L31.0062 19.1155L14.4215 18.8672C14.4215 18.8672 6.97039 18.1225 0 27.3078C0 27.3078 3.10783 16.3053 18.0653 15.0045C31.8307 13.3064 37.4959 7.69594 37.4959 7.69594C37.4959 7.69594 55.7631 -8.19212 89.894 5.70994C100.991 11.3105 104.433 7.81759 104.556 7.69594Z" fill="white"/>
<path d="M49.0908 10.1013C49.0908 10.1013 60.628 4.63975 88.0288 10.3495C88.0288 10.3495 77.9338 9.10827 58.4647 15.811C47.889 20.2796 40.6782 17.0523 40.6782 17.0523C40.6782 17.0523 55.3401 16.0593 65.9158 10.5978C65.9158 10.5978 68.5598 8.36352 49.0908 10.1013Z" fill="white"/>
<path d="M12.3303 37.9154C15.1843 37.9154 17.498 35.5258 17.498 32.578C17.498 29.6302 15.1843 27.2406 12.3303 27.2406C9.47626 27.2406 7.1626 29.6302 7.1626 32.578C7.1626 35.5258 9.47626 37.9154 12.3303 37.9154Z" fill="white"/>
<path d="M7.12891 28.9436C7.50473 27.9249 8.07716 26.9959 8.81141 26.2128C9.19613 25.8052 9.63472 25.4559 10.1142 25.1751C10.6132 24.8938 11.157 24.7071 11.7198 24.624C12.2927 24.5324 12.8781 24.5697 13.4359 24.7332C13.9858 24.9036 14.4962 25.1883 14.9357 25.5698C15.3572 25.929 15.7285 26.3467 16.039 26.8111C16.3505 27.2475 16.5938 27.7317 16.7601 28.246C16.1351 27.4094 15.402 26.6621 14.5175 26.2923C14.0956 26.1122 13.6515 25.9935 13.198 25.9397C12.7586 25.8818 12.3142 25.876 11.8736 25.9224C11.4218 25.9736 10.9753 26.0666 10.5396 26.2004C10.086 26.3516 9.64807 26.5487 9.23204 26.7888C8.80367 27.0452 8.41007 27.359 8.0615 27.7222C7.70956 28.094 7.39694 28.5034 7.12891 28.9436Z" fill="white"/>
<path d="M97.7996 38.5806C100.976 38.5806 103.551 35.9209 103.551 32.64C103.551 29.3591 100.976 26.6993 97.7996 26.6993C94.623 26.6993 92.0479 29.3591 92.0479 32.64C92.0479 35.9209 94.623 38.5806 97.7996 38.5806Z" fill="white"/>
<path d="M91.6968 26.4711C92.0943 25.9848 92.5371 25.5399 93.0187 25.1429C93.5153 24.7452 94.0482 24.3985 94.6099 24.1077C95.7701 23.4885 97.0741 23.2143 98.3763 23.3158C99.0389 23.374 99.6881 23.5416 100.299 23.8123C100.901 24.0973 101.446 24.4964 101.905 24.989C102.791 25.9209 103.459 27.0505 103.857 28.2907C103.249 27.2234 102.396 26.3273 101.374 25.6816C100.884 25.3894 100.371 25.1403 99.8401 24.9369C99.3209 24.7337 98.7841 24.5824 98.2369 24.4851C97.6806 24.3949 97.1168 24.3641 96.5544 24.3932C95.9729 24.4149 95.396 24.5082 94.8359 24.6712C94.2614 24.8354 93.7079 25.0696 93.187 25.3688C92.6583 25.6878 92.1594 26.0568 91.6968 26.4711Z" fill="white"/>
<path d="M72.3286 15.404C82.7962 13.3584 88.274 13.0953 91.365 13.3187C93.1389 13.4692 94.9244 13.369 96.6721 13.0208C98.8666 12.5727 100.973 11.747 102.902 10.578C102.98 11.6546 103.193 12.7161 103.537 13.7358C103.671 14.133 104.188 15.6001 106.075 18.2639C107.145 19.7757 107.779 20.436 108.209 20.9946C109.356 22.5089 110.433 25.1901 109.825 30.2891C109.065 27.7342 107.916 25.3207 106.421 23.1395C105.496 21.7915 104.224 19.9395 102.095 18.4227C99.3737 16.5186 96.624 16.1165 94.5377 15.8881C85.7142 14.8802 75.1288 15.2824 72.3286 15.404Z" fill="white"/>
<path d="M88.1492 19.5299L88.0555 19.7633L84.2843 29.0627L82.2652 25.0113L80.1309 38.6552L83.7074 30.1352L85.9571 33.8292L88.1492 19.5299Z" fill="#B63654"/>
<path d="M73.8187 25.3936L70.0114 35.2244L68.2231 35.2839L73.3091 22.8515L74.2225 22.8317L79.1258 35.3435L77.626 35.4031L76.4146 32.2453L71.7997 32.3645L71.9727 30.9346L76.0108 30.875L73.8187 25.3936Z" fill="white"/>
<path d="M67.1367 22.9707L67.1848 35.2839H65.9157L65.7427 27.1214L62.8391 35.2442L60.9547 35.2839L57.8974 26.5852L57.9551 35.2839H56.3398L56.5706 22.8912L57.9551 22.9508L61.82 33.1986L65.8004 23.0104L67.1367 22.9707Z" fill="white"/>
<path d="M47.8022 22.9508L47.9176 35.5818L55.0707 35.4031L55.1236 33.9781L49.4751 34.0327L49.4175 29.6238L54.8255 29.5493L54.8399 28.1343L49.3021 28.1939V24.3807L54.8976 24.3212V22.8912L47.8022 22.9508Z" fill="white"/>
<path d="M35.1043 28.4992V29.0131H36.0658V29.4376H35.1043V30.1078C34.7951 30.122 34.4864 30.0707 34.1971 29.9571C33.9077 29.8436 33.6439 29.6702 33.4218 29.4475L26.7543 29.6238L26.812 34.0327H32.4027V35.3981L25.2497 35.5768L25.1343 22.9458L32.2297 22.8862V24.3286L26.6341 24.3881V28.2013L33.4314 28.1442C33.6556 27.9256 33.9201 27.756 34.2092 27.6455C34.4983 27.535 34.806 27.4859 35.114 27.5012V28.0821H36.0754V28.5066L35.1043 28.4992Z" fill="white"/>
<path d="M38.8033 22.792L38.9763 34.0923H44.4565L44.3988 35.5223L37.6063 35.4776L37.5342 30.4579L36.7266 30.2792L36.7842 27.5385L37.5342 27.4789L37.4765 22.7721L38.8033 22.792Z" fill="white"/>
<path d="M25.4587 42.0661L27.0643 42.1108C27.1325 42.1129 27.2004 42.1005 27.2638 42.0744C27.3271 42.0482 27.3846 42.0089 27.4326 41.9588C27.4806 41.9088 27.5181 41.8491 27.5429 41.7834C27.5676 41.7177 27.579 41.6475 27.5763 41.5771L27.5547 40.9565C27.5491 40.8228 27.4937 40.6965 27.4001 40.6039C27.3065 40.5114 27.1819 40.4598 27.0523 40.46H25.4107C25.3453 40.4603 25.2807 40.4739 25.2205 40.5C25.1602 40.5262 25.1055 40.5643 25.0596 40.6122C25.0136 40.6602 24.9772 40.717 24.9525 40.7795C24.9278 40.842 24.9152 40.9088 24.9155 40.9763V43.0765C24.9162 43.213 24.9691 43.3437 25.0628 43.44C25.1565 43.5363 25.2833 43.5904 25.4155 43.5904H27.6845" stroke="white" stroke-miterlimit="10"/>
<path d="M35.2799 42.1134L36.8855 42.158C36.9548 42.1588 37.0235 42.1449 37.0874 42.1172C37.1512 42.0895 37.2089 42.0486 37.2569 41.9969C37.3049 41.9453 37.3421 41.884 37.3663 41.8169C37.3904 41.7499 37.401 41.6784 37.3974 41.6069L37.3758 40.9615C37.3721 40.8258 37.3178 40.6968 37.2241 40.6015C37.1305 40.5062 37.0049 40.4519 36.8735 40.4501H35.2318C35.0981 40.4533 34.9711 40.511 34.8784 40.6105C34.7857 40.71 34.7347 40.8432 34.7367 40.9813V43.1411C34.7328 43.2116 34.7428 43.2822 34.7661 43.3486C34.7894 43.415 34.8255 43.4758 34.8723 43.5274C34.919 43.5789 34.9754 43.6201 35.038 43.6484C35.1007 43.6768 35.1682 43.6917 35.2366 43.6922H37.496" stroke="white" stroke-miterlimit="10"/>
<path d="M43.4761 40.4153H41.5051C41.3695 40.4205 41.2414 40.4808 41.1487 40.5831C41.0559 40.6854 41.0061 40.8214 41.01 40.9614V43.1957C41.0067 43.3362 41.0575 43.4723 41.1512 43.5742C41.2449 43.6761 41.3739 43.7355 41.5099 43.7394H43.3895" stroke="white" stroke-miterlimit="10"/>
<path d="M60.8682 40.4153H58.8973C58.7625 40.4217 58.6357 40.4826 58.5439 40.5847C58.4522 40.6869 58.403 40.8222 58.407 40.9614V43.1957C58.4037 43.3362 58.4545 43.4723 58.5482 43.5742C58.6419 43.6761 58.7709 43.7355 58.9069 43.7394H60.7865" stroke="white" stroke-miterlimit="10"/>
<path d="M70.4248 40.4153H68.4538C68.3183 40.4205 68.1901 40.4808 68.0974 40.5831C68.0047 40.6854 67.9548 40.8214 67.9587 40.9614V43.1957C67.9555 43.3362 68.0063 43.4723 68.1 43.5742C68.1937 43.6761 68.3226 43.7355 68.4587 43.7394H70.3383" stroke="white" stroke-miterlimit="10"/>
<path d="M73.415 40.3259H75.386C75.5216 40.3311 75.6497 40.3914 75.7424 40.4937C75.8352 40.596 75.885 40.732 75.8811 40.8721V43.0914C75.8843 43.2319 75.8336 43.368 75.7399 43.4699C75.6462 43.5718 75.5172 43.6312 75.3812 43.6351H73.915" stroke="white" stroke-miterlimit="10"/>
<path d="M75.8521 42.0066H74.023C73.7682 42.0066 73.5615 42.1282 73.5615 42.2747V43.372C73.5615 43.5209 73.7682 43.6401 74.0254 43.6401H75.345" stroke="white" stroke-miterlimit="10"/>
<path d="M86.1349 40.465H84.4067C84.1664 40.465 83.9717 40.5916 83.9717 40.7455V41.8899C83.9717 42.0463 84.1688 42.1704 84.4091 42.1704H85.7023" stroke="white" stroke-miterlimit="10"/>
<path d="M84.57 42.1779H85.702C85.9424 42.1779 86.1371 42.3045 86.1371 42.4584V43.6028C86.1371 43.7567 85.94 43.8833 85.6996 43.8833H84.0508" stroke="white" stroke-miterlimit="10"/>
<path d="M54.8784 40.2787L54.9217 43.6301" stroke="white" stroke-miterlimit="10"/>
<path d="M54.8784 40.1V43.8088" stroke="white" stroke-miterlimit="10"/>
<path d="M50.5088 43.7641V40.9043C50.5088 40.9043 50.7251 40.1446 51.6769 40.368" stroke="white" stroke-miterlimit="10"/>
<path d="M79.5396 43.7641V40.9043C79.5396 40.9043 79.7559 40.1446 80.7077 40.368" stroke="white" stroke-miterlimit="10"/>
<path d="M46.5718 38.7147V43.6301" stroke="white" stroke-miterlimit="10"/>
<path d="M31.1265 38.7147V43.6301" stroke="white" stroke-miterlimit="10"/>
<path d="M46.1392 40.3234H47.4371" stroke="white" stroke-miterlimit="10"/>
</svg>
