<svg width="110" height="44" viewBox="0 0 110 44" fill="none" xmlns="http://www.w3.org/2000/svg">
<g id="Asset 1 1" clip-path="url(#clip0_1_662)">
<g id="Layer 2">
<g id="Layer 1">
<path id="Vector" d="M104.556 7.68874C104.467 7.88982 101.967 13.0162 80.2797 6.44749C58.1667 -0.25529 45.1874 6.69574 45.1874 6.69574C45.1874 6.69574 32.9291 15.3845 18.748 17.1223L31.0062 19.1083L14.4215 18.86C14.4215 18.86 6.97039 18.1153 0 27.3006C0 27.3006 3.10783 16.2981 18.0653 14.9972C31.8307 13.2992 37.4959 7.68874 37.4959 7.68874C37.4959 7.68874 55.7631 -8.19932 89.894 5.70273C100.991 11.3033 104.433 7.81038 104.556 7.68874Z" fill="#17A74A"/>
<path id="Vector_2" d="M49.0908 10.0941C49.0908 10.0941 60.628 4.63255 88.0288 10.3423C88.0288 10.3423 77.9338 9.10107 58.4647 15.8038C47.889 20.2724 40.6782 17.0451 40.6782 17.0451C40.6782 17.0451 55.3401 16.0521 65.9158 10.5906C65.9158 10.5906 68.5598 8.35632 49.0908 10.0941Z" fill="#17A74A"/>
<path id="Vector_3" d="M12.3303 37.9082C15.1843 37.9082 17.498 35.5186 17.498 32.5708C17.498 29.623 15.1843 27.2334 12.3303 27.2334C9.47626 27.2334 7.1626 29.623 7.1626 32.5708C7.1626 35.5186 9.47626 37.9082 12.3303 37.9082Z" fill="#17A74A"/>
<path id="Vector_4" d="M7.12891 28.9364C7.50473 27.9177 8.07716 26.9887 8.81141 26.2056C9.19613 25.798 9.63472 25.4487 10.1142 25.1679C10.6132 24.8866 11.157 24.6999 11.7198 24.6168C12.2927 24.5252 12.8781 24.5625 13.4359 24.726C13.9858 24.8964 14.4962 25.1811 14.9357 25.5626C15.3572 25.9218 15.7285 26.3395 16.039 26.8039C16.3505 27.2403 16.5938 27.7245 16.7601 28.2388C16.1351 27.4022 15.402 26.6549 14.5175 26.2851C14.0956 26.105 13.6515 25.9863 13.198 25.9325C12.7586 25.8746 12.3142 25.8688 11.8736 25.9152C11.4218 25.9664 10.9753 26.0594 10.5396 26.1932C10.086 26.3444 9.64807 26.5414 9.23204 26.7816C8.80367 27.038 8.41007 27.3518 8.0615 27.715C7.70956 28.0868 7.39694 28.4962 7.12891 28.9364Z" fill="#17A74A"/>
<path id="Vector_5" d="M97.7996 38.5734C100.976 38.5734 103.551 35.9137 103.551 32.6328C103.551 29.3519 100.976 26.6921 97.7996 26.6921C94.623 26.6921 92.0479 29.3519 92.0479 32.6328C92.0479 35.9137 94.623 38.5734 97.7996 38.5734Z" fill="#17A74A"/>
<path id="Vector_6" d="M91.6968 26.4639C92.0943 25.9776 92.5371 25.5327 93.0187 25.1357C93.5153 24.738 94.0482 24.3913 94.6099 24.1005C95.7701 23.4813 97.0741 23.2071 98.3763 23.3086C99.0389 23.3668 99.6881 23.5344 100.299 23.8051C100.901 24.0901 101.446 24.4892 101.905 24.9818C102.791 25.9137 103.459 27.0433 103.857 28.2835C103.249 27.2162 102.396 26.3201 101.374 25.6744C100.884 25.3822 100.371 25.1331 99.8401 24.9297C99.3209 24.7265 98.7841 24.5752 98.2369 24.4778C97.6806 24.3877 97.1168 24.3569 96.5544 24.386C95.9729 24.4077 95.396 24.501 94.8359 24.664C94.2614 24.8282 93.7079 25.0624 93.187 25.3616C92.6583 25.6806 92.1594 26.0496 91.6968 26.4639Z" fill="#17A74A"/>
<path id="Vector_7" d="M72.3286 15.3968C82.7962 13.3512 88.274 13.0881 91.365 13.3115C93.1389 13.462 94.9244 13.3618 96.6721 13.0136C98.8666 12.5655 100.973 11.7398 102.902 10.5708C102.98 11.6474 103.193 12.7089 103.537 13.7286C103.671 14.1258 104.188 15.5929 106.075 18.2567C107.145 19.7685 107.779 20.4288 108.209 20.9874C109.356 22.5017 110.433 25.1829 109.825 30.2819C109.065 27.727 107.916 25.3135 106.421 23.1323C105.496 21.7843 104.224 19.9323 102.095 18.4155C99.3737 16.5114 96.624 16.1093 94.5377 15.8809C85.7142 14.873 75.1288 15.2752 72.3286 15.3968Z" fill="#17A74A"/>
<path id="Vector_8" d="M88.1492 19.5227L88.0555 19.7561L84.2843 29.0555L82.2652 25.0041L80.1309 38.648L83.7074 30.128L85.9571 33.822L88.1492 19.5227Z" fill="#B63654"/>
<path id="Vector_9" d="M73.8187 25.3864L70.0114 35.2172L68.2231 35.2767L73.3091 22.8443L74.2225 22.8245L79.1258 35.3363L77.626 35.3959L76.4146 32.2381L71.7997 32.3573L71.9727 30.9274L76.0108 30.8678L73.8187 25.3864Z" fill="#5C5358"/>
<path id="Vector_10" d="M67.1367 22.9635L67.1848 35.2767H65.9157L65.7427 27.1142L62.8391 35.237L60.9547 35.2767L57.8974 26.578L57.9551 35.2767H56.3398L56.5706 22.884L57.9551 22.9436L61.82 33.1914L65.8004 23.0032L67.1367 22.9635Z" fill="#5C5358"/>
<path id="Vector_11" d="M47.8022 22.9436L47.9176 35.5746L55.0707 35.3959L55.1236 33.9709L49.4751 34.0255L49.4175 29.6166L54.8255 29.5421L54.8399 28.1271L49.3021 28.1867V24.3735L54.8976 24.314V22.884L47.8022 22.9436Z" fill="#5C5358"/>
<path id="Vector_12" d="M35.1043 28.492V29.0059H36.0658V29.4304H35.1043V30.1006C34.7951 30.1148 34.4864 30.0635 34.1971 29.9499C33.9077 29.8364 33.6439 29.663 33.4218 29.4403L26.7543 29.6166L26.812 34.0255H32.4027V35.3909L25.2497 35.5696L25.1343 22.9386L32.2297 22.879V24.3214L26.6341 24.3809V28.1941L33.4314 28.137C33.6556 27.9184 33.9201 27.7488 34.2092 27.6383C34.4983 27.5278 34.806 27.4787 35.114 27.494V28.0749H36.0754V28.4994L35.1043 28.492Z" fill="#5C5358"/>
<path id="Vector_13" d="M38.8033 22.7848L38.9763 34.0851H44.4565L44.3988 35.5151L37.6063 35.4704L37.5342 30.4507L36.7266 30.272L36.7842 27.5313L37.5342 27.4717L37.4765 22.7649L38.8033 22.7848Z" fill="#5C5358"/>
<path id="Vector_14" d="M25.4587 42.0589L27.0643 42.1036C27.1325 42.1057 27.2004 42.0933 27.2638 42.0672C27.3271 42.041 27.3846 42.0017 27.4326 41.9516C27.4806 41.9016 27.5181 41.8419 27.5429 41.7762C27.5676 41.7105 27.579 41.6403 27.5763 41.5699L27.5547 40.9493C27.5491 40.8156 27.4937 40.6893 27.4001 40.5967C27.3065 40.5042 27.1819 40.4526 27.0523 40.4528H25.4107C25.3453 40.4531 25.2807 40.4667 25.2205 40.4928C25.1602 40.519 25.1055 40.5571 25.0596 40.605C25.0136 40.653 24.9772 40.7098 24.9525 40.7723C24.9278 40.8347 24.9152 40.9016 24.9155 40.9691V43.0693C24.9162 43.2058 24.9691 43.3365 25.0628 43.4328C25.1565 43.5291 25.2833 43.5832 25.4155 43.5832H27.6845" stroke="#5C5358" stroke-miterlimit="10"/>
<path id="Vector_15" d="M35.2799 42.1062L36.8855 42.1508C36.9548 42.1516 37.0235 42.1377 37.0874 42.11C37.1512 42.0823 37.2089 42.0414 37.2569 41.9897C37.3049 41.9381 37.3421 41.8768 37.3663 41.8097C37.3904 41.7427 37.401 41.6712 37.3974 41.5997L37.3758 40.9543C37.3721 40.8186 37.3178 40.6896 37.2241 40.5943C37.1305 40.499 37.0049 40.4447 36.8735 40.4429H35.2318C35.0981 40.4461 34.9711 40.5038 34.8784 40.6033C34.7857 40.7028 34.7347 40.836 34.7367 40.9741V43.1339C34.7328 43.2044 34.7428 43.275 34.7661 43.3414C34.7894 43.4078 34.8255 43.4686 34.8723 43.5202C34.919 43.5717 34.9754 43.6129 35.038 43.6412C35.1007 43.6696 35.1682 43.6845 35.2366 43.685H37.496" stroke="#5C5358" stroke-miterlimit="10"/>
<path id="Vector_16" d="M43.4761 40.4081H41.5051C41.3695 40.4133 41.2414 40.4736 41.1487 40.5759C41.0559 40.6782 41.0061 40.8142 41.01 40.9542V43.1885C41.0067 43.329 41.0575 43.4651 41.1512 43.567C41.2449 43.6689 41.3739 43.7283 41.5099 43.7322H43.3895" stroke="#5C5358" stroke-miterlimit="10"/>
<path id="Vector_17" d="M60.8682 40.4081H58.8973C58.7625 40.4145 58.6357 40.4754 58.5439 40.5775C58.4522 40.6797 58.403 40.815 58.407 40.9542V43.1885C58.4037 43.329 58.4545 43.4651 58.5482 43.567C58.6419 43.6689 58.7709 43.7283 58.9069 43.7322H60.7865" stroke="#5C5358" stroke-miterlimit="10"/>
<path id="Vector_18" d="M70.4248 40.4081H68.4538C68.3183 40.4133 68.1901 40.4736 68.0974 40.5759C68.0047 40.6782 67.9548 40.8142 67.9587 40.9542V43.1885C67.9555 43.329 68.0063 43.4651 68.1 43.567C68.1937 43.6689 68.3226 43.7283 68.4587 43.7322H70.3383" stroke="#5C5358" stroke-miterlimit="10"/>
<path id="Vector_19" d="M73.415 40.3187H75.386C75.5216 40.3239 75.6497 40.3842 75.7424 40.4865C75.8352 40.5888 75.885 40.7248 75.8811 40.8649V43.0842C75.8843 43.2247 75.8336 43.3608 75.7399 43.4627C75.6462 43.5646 75.5172 43.624 75.3812 43.6279H73.915" stroke="#5C5358" stroke-miterlimit="10"/>
<path id="Vector_20" d="M75.8521 41.9994H74.023C73.7682 41.9994 73.5615 42.121 73.5615 42.2675V43.3648C73.5615 43.5137 73.7682 43.6329 74.0254 43.6329H75.345" stroke="#5C5358" stroke-miterlimit="10"/>
<path id="Vector_21" d="M86.1349 40.4578H84.4067C84.1664 40.4578 83.9717 40.5844 83.9717 40.7383V41.8827C83.9717 42.0391 84.1688 42.1632 84.4091 42.1632H85.7023" stroke="#5C5358" stroke-miterlimit="10"/>
<path id="Vector_22" d="M84.57 42.1707H85.702C85.9424 42.1707 86.1371 42.2973 86.1371 42.4512V43.5956C86.1371 43.7495 85.94 43.8761 85.6996 43.8761H84.0508" stroke="#5C5358" stroke-miterlimit="10"/>
<path id="Vector_23" d="M54.8784 40.2715L54.9217 43.6229" stroke="#5C5358" stroke-miterlimit="10"/>
<path id="Vector_24" d="M54.8784 40.0928V43.8016" stroke="#5C5358" stroke-miterlimit="10"/>
<path id="Vector_25" d="M50.5088 43.7569V40.8971C50.5088 40.8971 50.7251 40.1374 51.6769 40.3608" stroke="#5C5358" stroke-miterlimit="10"/>
<path id="Vector_26" d="M79.5396 43.7569V40.8971C79.5396 40.8971 79.7559 40.1374 80.7077 40.3608" stroke="#5C5358" stroke-miterlimit="10"/>
<path id="Vector_27" d="M46.5718 38.7075V43.6229" stroke="#5C5358" stroke-miterlimit="10"/>
<path id="Vector_28" d="M31.1265 38.7075V43.6229" stroke="#5C5358" stroke-miterlimit="10"/>
<path id="Vector_29" d="M46.1392 40.3162H47.4371" stroke="#5C5358" stroke-miterlimit="10"/>
</g>
</g>
</g>
<defs>
<clipPath id="clip0_1_662">
<rect width="110" height="44" fill="white"/>
</clipPath>
</defs>
</svg>
